<svg width="209" height="256" viewBox="0 0 209 256" fill="none" xmlns="http://www.w3.org/2000/svg">
<path fill-rule="evenodd" clip-rule="evenodd" d="M109.657 121.168L109.657 4.35965e-06L126.425 0V43.3314L192.23 0H209V121.168L153.469 121.168C144.576 121.168 137.786 123.296 133.099 127.555L133.093 127.56C128.288 131.819 125.884 137.815 125.884 145.183C125.884 152.553 128.29 158.426 133.099 162.801C137.786 167.059 144.577 169.188 153.469 169.188H209V188.853H147.527L147.457 188.862C141.453 189.636 136.667 191.643 133.099 194.885L133.096 194.887C128.289 199.146 125.884 204.96 125.884 212.33C125.884 219.7 128.29 225.573 133.099 229.948C137.786 234.206 144.577 236.335 153.469 236.335H209V256H109.657V236.335H120.87L118.993 234.588C115.864 231.674 113.352 228.166 111.459 224.063C109.176 219.116 108.035 213.824 108.035 208.186C108.035 201.2 109.151 195.787 111.94 190.318L112.687 188.853H109.657V169.188H120.202L118.428 167.457C115.438 164.54 113.356 161.028 111.459 156.916C110.389 154.544 109.57 152.107 109.001 149.608C108.983 149.527 108.965 149.446 108.947 149.365C108.65 148.018 108.425 146.653 108.273 145.27C108.035 143.238 108.071 142.594 108.035 140.857C107.998 139.119 109.25 128.084 111.962 122.623L112.685 121.168H109.657ZM150.404 101.675C141.692 101.675 134.214 103.288 127.972 106.511L126.425 107.311V76.546L164.587 101.675H150.404ZM192.232 22.7741L192.233 97.1034L135.566 59.9387L192.232 22.7741Z" fill="url(#paint0_linear_239_251)"/>
<path fill-rule="evenodd" clip-rule="evenodd" d="M50.4831 256C62.9399 256 74.3447 251.405 83.1486 243.79V256H100.966L100.966 0H83.1486V12.2096C74.3447 4.59503 62.9399 1.60998e-05 50.4831 1.60998e-05C38.0263 1.60998e-05 26.6215 4.59503 17.8176 12.2096V8.04991e-06H0L4.30704e-06 102.803H17.8176V90.5935C26.6215 98.2081 38.0263 102.803 50.4831 102.803C62.9399 102.803 74.3447 98.2081 83.1486 90.5935V119.773C78.525 133.709 65.6972 143.734 50.4596 143.734C35.1622 143.734 22.1796 133.631 17.6008 119.619L17.3755 118.929H0L5.84105e-06 256H17.8188L17.8038 243.778C26.6096 251.4 38.0197 256 50.4831 256ZM17.8229 34.5078V68.2954C23.8761 80.4029 36.2297 88.6929 50.4831 88.6929C64.7407 88.6929 77.0973 80.398 83.1486 68.2846V34.5185C77.0973 22.4052 64.7407 14.1103 50.4831 14.1103C36.2297 14.1103 23.8761 22.4003 17.8229 34.5078ZM17.6815 144.343L17.7075 165.502C23.3469 160.596 30.0617 156.932 37.4426 154.928C30.0506 152.926 23.3264 149.257 17.6815 144.343ZM63.491 154.92C70.8367 156.909 77.5236 160.541 83.1486 165.406V144.404C77.5266 149.28 70.8393 152.923 63.491 154.92ZM17.7352 187.881L17.8005 221.447C23.8457 233.579 36.2121 241.89 50.4831 241.89C64.7407 241.89 77.0973 233.595 83.1486 221.481V187.715C77.0973 175.602 64.7407 167.307 50.4831 167.307C36.1605 167.307 23.7562 175.678 17.7352 187.881Z" fill="url(#paint1_linear_239_251)"/>
<path d="M50.4831 41.3228C44.4695 41.3228 39.5946 46.2865 39.5946 52.4094C39.5946 58.5324 44.4695 63.4961 50.4831 63.4961C56.4966 63.4961 61.3716 58.5324 61.3716 52.4094C61.3716 46.2865 56.4966 41.3228 50.4831 41.3228Z" fill="url(#paint2_linear_239_251)"/>
<defs>
<linearGradient id="paint0_linear_239_251" x1="104.5" y1="0" x2="104.5" y2="256" gradientUnits="userSpaceOnUse">
<stop stop-color="#1A619E"/>
<stop offset="1" stop-color="#41C8A2"/>
</linearGradient>
<linearGradient id="paint1_linear_239_251" x1="104.5" y1="0" x2="104.5" y2="256" gradientUnits="userSpaceOnUse">
<stop stop-color="#1A619E"/>
<stop offset="1" stop-color="#41C8A2"/>
</linearGradient>
<linearGradient id="paint2_linear_239_251" x1="104.5" y1="0" x2="104.5" y2="256" gradientUnits="userSpaceOnUse">
<stop stop-color="#1A619E"/>
<stop offset="1" stop-color="#41C8A2"/>
</linearGradient>
</defs>
</svg>
